<mxfile host="drawio-plugin" modified="2021-06-14T11:59:20.711Z" agent="5.0 (Macintosh; Intel Mac OS X 10_15_7) AppleWebKit/537.36 (KHTML, like Gecko) Chrome/87.0.4280.141 Safari/537.36" version="14.6.6" etag="j1GFabSU7nV2KgqoQsCN" type="embed"><diagram id="ry-H1HB1uMmgQ6GoM_wu" name="Page-1"><mxGraphModel dx="1233" dy="1839" grid="1" gridSize="10" guides="1" tooltips="1" connect="1" arrows="1" fold="1" page="1" pageScale="1" pageWidth="850" pageHeight="1100" math="0" shadow="0"><root><mxCell id="0"/><mxCell id="1" parent="0"/><mxCell id="3" style="edgeStyle=orthogonalEdgeStyle;rounded=0;orthogonalLoop=1;jettySize=auto;html=1;startArrow=classic;startFill=1;endArrow=none;endFill=0;" edge="1" parent="1" source="2"><mxGeometry relative="1" as="geometry"><mxPoint x="420" as="targetPoint"/><Array as="points"><mxPoint x="420"/></Array></mxGeometry></mxCell><mxCell id="11" style="edgeStyle=orthogonalEdgeStyle;rounded=0;orthogonalLoop=1;jettySize=auto;html=1;startArrow=classic;startFill=1;endArrow=none;endFill=0;" edge="1" parent="1" source="2"><mxGeometry relative="1" as="geometry"><mxPoint x="420" y="180" as="targetPoint"/></mxGeometry></mxCell><mxCell id="2" value="API Gateway*" style="rounded=0;whiteSpace=wrap;html=1;" vertex="1" parent="1"><mxGeometry y="70" width="840" height="40" as="geometry"/></mxCell><mxCell id="4" value="https/REST" style="text;html=1;strokeColor=none;fillColor=none;align=center;verticalAlign=middle;whiteSpace=wrap;rounded=0;" vertex="1" parent="1"><mxGeometry x="440" y="20" width="40" height="20" as="geometry"/></mxCell><mxCell id="13" style="edgeStyle=orthogonalEdgeStyle;rounded=0;orthogonalLoop=1;jettySize=auto;html=1;entryX=0;entryY=0.5;entryDx=0;entryDy=0;startArrow=classic;startFill=1;endArrow=classic;endFill=1;" edge="1" parent="1" source="5" target="6"><mxGeometry relative="1" as="geometry"/></mxCell><mxCell id="5" value="NotificationService" style="rounded=0;whiteSpace=wrap;html=1;" vertex="1" parent="1"><mxGeometry y="240" width="120" height="60" as="geometry"/></mxCell><mxCell id="10" style="edgeStyle=orthogonalEdgeStyle;rounded=0;orthogonalLoop=1;jettySize=auto;html=1;entryX=0.5;entryY=0;entryDx=0;entryDy=0;startArrow=classic;startFill=1;endArrow=classic;endFill=1;" edge="1" parent="1" source="6" target="8"><mxGeometry relative="1" as="geometry"><Array as="points"><mxPoint x="300" y="180"/><mxPoint x="780" y="180"/></Array></mxGeometry></mxCell><mxCell id="14" style="edgeStyle=orthogonalEdgeStyle;rounded=0;orthogonalLoop=1;jettySize=auto;html=1;startArrow=classic;startFill=1;endArrow=classic;endFill=1;" edge="1" parent="1" source="6" target="7"><mxGeometry relative="1" as="geometry"/></mxCell><mxCell id="15" style="edgeStyle=orthogonalEdgeStyle;rounded=0;orthogonalLoop=1;jettySize=auto;html=1;entryX=0.5;entryY=0;entryDx=0;entryDy=0;entryPerimeter=0;startArrow=classic;startFill=1;endArrow=classic;endFill=1;" edge="1" parent="1" source="6" target="9"><mxGeometry relative="1" as="geometry"/></mxCell><mxCell id="6" value="MyFinanz&lt;br&gt;Service**" style="rounded=0;whiteSpace=wrap;html=1;" vertex="1" parent="1"><mxGeometry x="240" y="240" width="120" height="60" as="geometry"/></mxCell><mxCell id="7" value="TransferService" style="rounded=0;whiteSpace=wrap;html=1;" vertex="1" parent="1"><mxGeometry x="480" y="240" width="120" height="60" as="geometry"/></mxCell><mxCell id="19" style="edgeStyle=orthogonalEdgeStyle;rounded=0;orthogonalLoop=1;jettySize=auto;html=1;startArrow=classic;startFill=1;endArrow=classic;endFill=1;" edge="1" parent="1" source="8" target="18"><mxGeometry relative="1" as="geometry"/></mxCell><mxCell id="8" value="Authentication&lt;br&gt;Service" style="rounded=0;whiteSpace=wrap;html=1;" vertex="1" parent="1"><mxGeometry x="720" y="240" width="120" height="60" as="geometry"/></mxCell><mxCell id="9" value="Departments,&lt;br&gt;Teams" style="shape=cylinder3;whiteSpace=wrap;html=1;boundedLbl=1;backgroundOutline=1;size=15;" vertex="1" parent="1"><mxGeometry x="240" y="380" width="120" height="70" as="geometry"/></mxCell><mxCell id="12" value="http" style="text;html=1;strokeColor=none;fillColor=none;align=center;verticalAlign=middle;whiteSpace=wrap;rounded=0;" vertex="1" parent="1"><mxGeometry x="425" y="130" width="40" height="20" as="geometry"/></mxCell><mxCell id="16" value="gRPC" style="text;html=1;strokeColor=none;fillColor=none;align=center;verticalAlign=middle;whiteSpace=wrap;rounded=0;" vertex="1" parent="1"><mxGeometry x="400" y="240" width="40" height="20" as="geometry"/></mxCell><mxCell id="17" value="gRPC" style="text;html=1;strokeColor=none;fillColor=none;align=center;verticalAlign=middle;whiteSpace=wrap;rounded=0;" vertex="1" parent="1"><mxGeometry x="160" y="240" width="40" height="20" as="geometry"/></mxCell><mxCell id="18" value="User/PW&lt;br&gt;(Organizer / Member)" style="shape=cylinder3;whiteSpace=wrap;html=1;boundedLbl=1;backgroundOutline=1;size=15;" vertex="1" parent="1"><mxGeometry x="720" y="380" width="120" height="70" as="geometry"/></mxCell></root></mxGraphModel></diagram></mxfile>